<svg xmlns="http://www.w3.org/2000/svg"  viewBox="0 0 64 64" width="96px" height="96px"><linearGradient id="G0xt5Jc3VFs2RO0nO8MMaa" x1="32" x2="32" y1="20.557" y2="35.614" gradientUnits="userSpaceOnUse"><stop offset="0" stop-color="#6dc7ff"/><stop offset="1" stop-color="#e6abff"/></linearGradient><path fill="url(#G0xt5Jc3VFs2RO0nO8MMaa)" d="M50.905,21H13.095C12.49,21,12,21.49,12,22.095v10.809C12,33.51,12.49,34,13.095,34H25v-2	c0-1.105,0.895-2,2-2h10c1.105,0,2,0.895,2,2v2h11.905C51.51,34,52,33.51,52,32.905V22.095C52,21.49,51.51,21,50.905,21z"/><linearGradient id="G0xt5Jc3VFs2RO0nO8MMab" x1="32" x2="32" y1="8.787" y2="54.617" gradientUnits="userSpaceOnUse"><stop offset="0" stop-color="#1a6dff"/><stop offset="1" stop-color="#c822ff"/></linearGradient><path fill="url(#G0xt5Jc3VFs2RO0nO8MMab)" d="M53,9H11c-1.654,0-3,1.346-3,3v40c0,1.654,1.346,3,3,3h42c1.654,0,3-1.346,3-3V12 C56,10.346,54.654,9,53,9z M28.382,11l3,6h-4.764l-3-6H28.382z M10,12c0-0.552,0.448-1,1-1h10.382l3,6H10V12z M54,52 c0,0.552-0.448,1-1,1H11c-0.552,0-1-0.448-1-1v-1.184C10.314,50.928,10.647,51,11,51h42c0.353,0,0.686-0.072,1-0.184V52z M54,48 c0,0.552-0.448,1-1,1H11c-0.552,0-1-0.448-1-1V19h44V48z M54,17H33.618l-3-6H53c0.552,0,1,0.448,1,1V17z"/><linearGradient id="G0xt5Jc3VFs2RO0nO8MMac" x1="18" x2="18" y1="8.787" y2="54.617" gradientUnits="userSpaceOnUse"><stop offset="0" stop-color="#1a6dff"/><stop offset="1" stop-color="#c822ff"/></linearGradient><path fill="url(#G0xt5Jc3VFs2RO0nO8MMac)" d="M13,47h10c0.552,0,1-0.447,1-1v-9c0-0.553-0.448-1-1-1H13c-0.552,0-1,0.447-1,1v9 C12,46.553,12.448,47,13,47z M14,38h8v7h-8V38z"/><linearGradient id="G0xt5Jc3VFs2RO0nO8MMad" x1="28" x2="28" y1="8.787" y2="54.617" gradientUnits="userSpaceOnUse"><stop offset="0" stop-color="#1a6dff"/><stop offset="1" stop-color="#c822ff"/></linearGradient><rect width="2" height="2" x="27" y="32" fill="url(#G0xt5Jc3VFs2RO0nO8MMad)"/><linearGradient id="G0xt5Jc3VFs2RO0nO8MMae" x1="32" x2="32" y1="8.787" y2="54.617" gradientUnits="userSpaceOnUse"><stop offset="0" stop-color="#1a6dff"/><stop offset="1" stop-color="#c822ff"/></linearGradient><rect width="2" height="2" x="31" y="32" fill="url(#G0xt5Jc3VFs2RO0nO8MMae)"/><linearGradient id="G0xt5Jc3VFs2RO0nO8MMaf" x1="36" x2="36" y1="8.787" y2="54.617" gradientUnits="userSpaceOnUse"><stop offset="0" stop-color="#1a6dff"/><stop offset="1" stop-color="#c822ff"/></linearGradient><rect width="2" height="2" x="35" y="32" fill="url(#G0xt5Jc3VFs2RO0nO8MMaf)"/><linearGradient id="G0xt5Jc3VFs2RO0nO8MMag" x1="32" x2="32" y1="8.787" y2="54.617" gradientUnits="userSpaceOnUse"><stop offset="0" stop-color="#1a6dff"/><stop offset="1" stop-color="#c822ff"/></linearGradient><path fill="url(#G0xt5Jc3VFs2RO0nO8MMag)" d="M27,47h10c0.552,0,1-0.447,1-1v-9c0-0.553-0.448-1-1-1H27c-0.552,0-1,0.447-1,1v9 C26,46.553,26.448,47,27,47z M28,38h8v7h-8V38z"/><linearGradient id="G0xt5Jc3VFs2RO0nO8MMah" x1="46" x2="46" y1="8.787" y2="54.617" gradientUnits="userSpaceOnUse"><stop offset="0" stop-color="#1a6dff"/><stop offset="1" stop-color="#c822ff"/></linearGradient><path fill="url(#G0xt5Jc3VFs2RO0nO8MMah)" d="M41,47h10c0.552,0,1-0.447,1-1v-9c0-0.553-0.448-1-1-1H41c-0.552,0-1,0.447-1,1v9 C40,46.553,40.448,47,41,47z M42,38h8v7h-8V38z"/></svg>