<svg xmlns="http://www.w3.org/2000/svg"  viewBox="0 0 64 64" width="96px" height="96px"><linearGradient id="DU4kmAU9qEyBUTqdyUTs4a" x1="32" x2="32" y1="30.425" y2="36.085" gradientUnits="userSpaceOnUse"><stop offset="0" stop-color="#6dc7ff"/><stop offset="1" stop-color="#e6abff"/></linearGradient><path fill="url(#DU4kmAU9qEyBUTqdyUTs4a)" d="M35.202,35.958H28.8c-0.442,0-0.8-0.317-0.8-0.709v-0.573c0-1.703,1.287-3.268,3.172-3.603	C33.743,30.617,36,32.347,36,34.543v0.709C36,35.642,35.643,35.958,35.202,35.958z"/><linearGradient id="DU4kmAU9qEyBUTqdyUTs4b" x1="27" x2="27" y1="23.638" y2="28.926" gradientUnits="userSpaceOnUse"><stop offset="0" stop-color="#6dc7ff"/><stop offset="1" stop-color="#e6abff"/></linearGradient><circle cx="27" cy="26" r="2" fill="url(#DU4kmAU9qEyBUTqdyUTs4b)"/><linearGradient id="DU4kmAU9qEyBUTqdyUTs4c" x1="37" x2="37" y1="23.638" y2="28.926" gradientUnits="userSpaceOnUse"><stop offset="0" stop-color="#6dc7ff"/><stop offset="1" stop-color="#e6abff"/></linearGradient><circle cx="37" cy="26" r="2" fill="url(#DU4kmAU9qEyBUTqdyUTs4c)"/><linearGradient id="DU4kmAU9qEyBUTqdyUTs4d" x1="32" x2="32" y1="11.17" y2="52.737" gradientUnits="userSpaceOnUse"><stop offset="0" stop-color="#1a6dff"/><stop offset="1" stop-color="#c822ff"/></linearGradient><path fill="url(#DU4kmAU9qEyBUTqdyUTs4d)" d="M59,45h-2V16c0-2.758-2.242-5-5-5H12c-2.758,0-5,2.242-5,5v29H5c-1.102,0-2,0.898-2,2v1 c0,2.758,2.242,5,5,5h48c2.758,0,5-2.242,5-5v-1C61,45.898,60.102,45,59,45z M9,16c0-1.652,1.348-3,3-3h40c1.652,0,3,1.348,3,3v29 H39.617c-0.766,0-1.449,0.426-1.789,1.105L37.383,47l-10.766-0.004l-0.445-0.887C25.832,45.426,25.145,45,24.383,45H9V16z M59,48 c0,1.652-1.348,3-3,3H8c-1.652,0-3-1.348-3-3v-1l19.383,0.004l0.445,0.887C25.168,48.574,25.852,49,26.617,49h10.766 c0.766,0,1.449-0.426,1.789-1.105L39.617,47H59V48z"/><linearGradient id="DU4kmAU9qEyBUTqdyUTs4e" x1="32" x2="32" y1="11.17" y2="52.737" gradientUnits="userSpaceOnUse"><stop offset="0" stop-color="#1a6dff"/><stop offset="1" stop-color="#c822ff"/></linearGradient><path fill="url(#DU4kmAU9qEyBUTqdyUTs4e)" d="M53,21v-2v-1c0-1.652-1.348-3-3-3H14c-1.652,0-3,1.348-3,3v25h4h2h36V21z M17,41v-2h5v-4h-2 v2h-5v4h-2V18c0-0.551,0.449-1,1-1h36c0.551,0,1,0.449,1,1v1h-4v3h-4v2h2v2h2v-2h2v-3h2v20H17z"/></svg>