<svg xmlns="http://www.w3.org/2000/svg"  viewBox="0 0 64 64" width="96px" height="96px"><linearGradient id="rA1kdN3apPBfOwTRFzFkZa" x1="32" x2="32" y1="7" y2="14" gradientUnits="userSpaceOnUse" spreadMethod="reflect"><stop offset="0" stop-color="#6dc7ff"/><stop offset="1" stop-color="#e6abff"/></linearGradient><path fill="url(#rA1kdN3apPBfOwTRFzFkZa)" d="M24.602,14h14.796c1.493,0,2.759-1.098,2.97-2.576L43,7H21l0.632,4.424 C21.843,12.902,23.109,14,24.602,14z M38,10c0.552,0,1,0.448,1,1c0,0.552-0.448,1-1,1s-1-0.448-1-1C37,10.448,37.448,10,38,10z M30,10c0.372,0,3.625,0,4,0c0.552,0,1,0.448,1,1c0,0.552-0.448,1-1,1c-0.375,0-3.628,0-4,0c-0.552,0-1-0.448-1-1 C29,10.448,29.448,10,30,10z"/><linearGradient id="rA1kdN3apPBfOwTRFzFkZb" x1="32" x2="32" y1="6" y2="58" gradientUnits="userSpaceOnUse" spreadMethod="reflect"><stop offset="0" stop-color="#1a6dff"/><stop offset="1" stop-color="#c822ff"/></linearGradient><path fill="url(#rA1kdN3apPBfOwTRFzFkZb)" d="M44,58H20c-2.757,0-5-2.243-5-5V11c0-2.757,2.243-5,5-5h24c2.757,0,5,2.243,5,5v42 C49,55.757,46.757,58,44,58z M20,8c-1.654,0-3,1.346-3,3v42c0,1.654,1.346,3,3,3h24c1.654,0,3-1.346,3-3V11c0-1.654-1.346-3-3-3H20z"/></svg>